<?xml version="1.0" encoding="UTF-8"?><svg id="Layer_1" xmlns="http://www.w3.org/2000/svg" viewBox="0 0 196.93 157.87"><path d="M63.02,155.51c-1.04,1.15-5.97,2.5-7.5-1.55-.41-1.09-.07-8.17.24-10.72,1.38-12.4,2.02-19.25,3.1-28.54,1.78-14,.99-8.28,3.05-24.14.17-1.62.56-4.76,1.12-8.41-.74-.04-3.69.15-4.47.12-.95-.03-1.98-.39-2.24-1.48-.25-1.04-.2-2.49.7-3.23.98-.76,1.56-.82,3.73-1.05,1.23-.1,2.9-.07,2.9-.07,0,0,.17-.89.26-2.02,1.45-11.13,3.2-22.22,5.8-33.21,2.05-8.67,4.14-17.34,7.49-25.72,1.49-3.71,3.23-7.3,5.8-10.48,1.36-1.67,2.92-3.1,4.87-4.09,2.53-1.28,5.44-1.21,7.78.13s3.86,3.36,4.99,5.71c1.83,3.8,2.82,7.89,3.24,12.11.46,4.56.77,9.14.99,13.73.91,18.5,1.6,35.14,2.43,53.65.03.58.17,3.02.17,3.02,0,0,1.03,1.24,1.76,1.9,9.07,8.62,15.87,19.1,19.37,31.11,2.26,7.75,2.57,15.77,1.37,23.95-.54,3.67-2.62,6.39-5.32,8.76-1.86,1.63-4.01,1.97-6.26,1.06-2.33-.95-4.25-2.39-5.79-4.32-3.91-4.88-6.46-10.49-8.31-16.47-3.38-10.89-4.74-22.25-5.91-33.66-.33-3.21-.34-5.32-.65-8.53-.15-1.55-.25-2.85-.25-2.85,0,0-2.64-1.28-5.38-2.33-3.61-1.39-8.67-2.94-12.65-3.8-4.69-1.02-10.45-1.56-10.45-1.56,0,0-.07.54-.2,1.54-.24,1.84-.4,3.69-.63,5.53-1.75,14.17-1.98,18.89-2.78,29.8-.7,12.06-.68,12.9-1.12,23.89-.33,8.21-.21,11.07-1.25,12.21ZM96.77,82.98c.04-.94.09-1.55.08-2.16-.14-9.56-.31-17.93-.81-28.37-.33-9.17-.16-4.72-.94-26.21-.29-4.11-.36-5.17-.61-7.97-.28-2.49-.31-3.2-.76-6.19-.71-4.93-2.88-8.23-7.42-2.11-1.23,1.63-4.47,6.97-6.78,15.27-4.75,16.17-6.44,26.38-9,43.66-.38,3-.88,7.38-.88,7.38,0,0,1.78.19,3.51.42,9.02,1.07,22.43,5.76,23.59,6.27ZM108.33,99.18c.19,2.62.33,3.84.37,4.24,1.32,10.47,2.37,17.78,5.56,27.36,1.75,5.26,3.99,10.25,7.53,14.53.51.61,1.02,1.16,1.77,1.78,1.01-1.42,1.17-3.34,1.32-4.66.52-4.56.28-8.53-.46-12.98-1.87-11.25-7.09-20.48-14.51-28.8-.26-.29-.93-.98-1.59-1.47Z"/><path d="M157.44,28.24c-.83-.81-1.54-1.37-2.1-2.05-4.59-5.53-9.1-11.11-13.74-16.6-2.15-2.54-4.48-4.93-6.79-7.33-1.06-1.1-2.44-1.79-4.26-1.82-3.41-.05-5.46,1.36-6.48,4.7-.45,1.46-.76,2.97-.86,4.4-.66,9.42-1.55,18.89-1.78,28.22-.25,10.33-.08,17.72.19,27.93.09,3.52-.02,6.2.32,10.28.18,1.11,1.16,4.89,3.44,4.83,2.06-.28,4.06-.76,5.05-2.93.68-1.48,1.08-3.1,1.21-4.59.3-3.56.42-7.09.53-10.61.42-13.81.6-27.56-.07-41.1-.03-.55.02-1.12.04-2.05.62.29,1.08.39,1.35.66,3.66,3.65,7.34,7.29,10.9,11.02,1.39,1.46,2.46,3.21,3.77,4.76,1.01,1.19,2.03,2.4,3.28,3.37,2.7,2.1,5.88,1.24,8.3-2.31,2.23-3.28,4.24-6.67,6.28-10.03,2.5-4.14,4.93-8.3,7.4-12.45.36-.61.78-1.2,1.67-1.87.12.7.3,1.37.33,2.09.15,3.46.3,6.92.36,10.4.21,11.66.4,23.32.58,34.98.03,1.71-.01,3.43-.01,5.14,0,.64.17,11.72.25,12.34.17,2.28,1.56,3.44,2.62,3.23,1.59,0,2.35-.95,2.5-2.71.14-2.57.18-13.84.19-14.82,0-6.21,0-12.42-.07-18.62-.07-7.34-.09-14.68-.33-21.98-.19-5.94-.65-11.82-1.04-17.71-.05-.83-.22-1.67-.54-2.38-.85-1.87-3.12-2.05-5.13-.32-1.01.87-1.92,1.95-2.63,3.03-4.27,6.57-8.46,13.17-12.68,19.76-.61.95-1.22,1.9-2.02,3.15Z"/><path d="M44.64,120.26c-.1,8.38-.23,19.26-.37,30.14-.02,1.35.03,2.71-.16,4.04-.26,1.85-1.12,2.75-2.57,3-1.67.28-3.03-.38-3.77-1.81-.64-1.24-1.13-2.65-1.29-4.02-.44-3.88-.71-7.79-.97-11.69-.28-4.19-.46-8.38-.71-12.57-.12-2.04-.26-2.21-2.27-2.14-7.25.25-14.5.54-21.75.84-1.77.07-1.91.25-1.87,2.06.11,6.04.7,12.1.35,18.13-.31,5.33-1.1,6.9-1.28,7.29-.42.91-1.75,1.25-2.98,1.24-1.13,0-2.87-.92-3.19-1.77-.58-1.6-.71-5.5-1.04-9.12-1-20.57-.9-24.77-.28-42.13.18-2.59.42-5.82,1.48-7.72.5-1.2,1.21-1.92,2.49-1.97,1.32-.05,2.1.38,2.69,1.56.43.87.72,1.87.81,2.84.24,2.62.4,5.25.47,7.88.12,4.41.15,8.82.22,13.23,0,.57.03,1.14.04,1.71,0,.95.45,1.46,1.44,1.43.5-.02,1-.04,1.49-.05,6.76-.19,13.51-.38,20.27-.57.21,0,.43,0,.64,0,1.67-.09,1.85-.27,1.78-1.89-.09-2.27-.05-12.42.72-25.04.36-2.45.51-8.39,1.24-10.76.34-1.1,1.06-2.21,1.9-3.02,2.09-2.02,5.13-.97,5.64,1.91.22,1.25.21,2.55.23,3.83.2,10.88.39,21.77.62,35.15Z"/><path d="M30.61.97c6.39.11,13.02,2.73,18.83,7.45,1.09.88,2.06,2,2.81,3.18,1.41,2.2.19,4.78-2.41,5.09-1.08.13-2.37.03-3.31-.45-2.07-1.05-4.13-2.24-5.94-3.68-5.6-4.44-12.05-5.02-18.24-1.43-2,1.16-3.68,2.68-4.82,4.72-2.16,3.87-1.23,7.81,2.7,9.8,4.18,2.11,8.52,3.93,12.86,5.71,4.39,1.81,8.52,3.96,11.78,7.49,2.45,2.66,3.34,5.02,4.16,8.57,1.35,5.87.68,11.67-3.37,16.03-3.69,3.98-8.37,6.28-13.55,7.69-6.06,1.64-12.07,1.86-17.98-.64-5.12-2.17-9.08-5.54-11.22-10.79-1.05-2.57-1.34-5.23-.62-7.95.54-2.06,1.73-3.51,3.85-4.19,2.41-.77,4.27-.08,5.13,2.33.52,1.45.59,3.05.88,4.58.25,1.32.35,2.7.82,3.94,2.67,7.06,10.91,10.14,17.62,6.65,6.06-3.15,9.12-9.35,7.81-16.06-1.43-7.29-5.53-12.35-12.68-14.75-2.16-.72-4.37-1.31-6.45-2.22-2.33-1.02-4.69-2.1-6.78-3.55-5.22-3.61-6.77-9.41-4.3-15.27,2.24-5.32,6.37-8.61,11.64-10.6,3.09-1.17,6.32-1.67,10.79-1.66Z"/><path d="M151.06,150.58c.99.08,4.38-.28,12.93.68,2.39.34,2.21,1.48,2.35,3.07.13,1.51-.48,2.36-2.22,2.96-.6.21-1.25.31-1.88.35-5.12.31-10.22.32-15.32-.52-2.42-.4-3.92-1.57-4.55-3.86-.35-1.3-.66-2.64-.73-3.97-.16-3.12-.25-6.25-.22-9.38.1-12.88.16-25.75.44-38.63.1-4.32.12-11.09,2.06-15.35,1.17-2.13,3.48-2.3,4.78-.26.66,1.04,1.11,2.34,1.23,3.56.95,9.56,1.38,19.15,1.39,28.77,0,7.68.04,15.37.03,23.05,0,1.78.01,3.72-.08,5.49-.05.91-.15,2.81-.21,4.04Z"/><path d="M180.75,149.35c.87.06.64-.16,7.23-.16,2.6.15,6.74.2,7.39.47,1.25.52,1.48,2.29,1.56,3.77.07,1.29-1.31,2.89-2.63,3.45-.64.27-1.34.5-2.03.53-3.73.2-7.47.51-11.21.45-4.44-.06-6.34-.27-7.17-5.2-.51-3.07-.25-7.22-.34-10.34-.33-10.8-.52-18.74-.68-29.55-.04-2.98.14-8.84.46-11.8.18-1.67.32-4.49,3.34-4.49,3.46.51,2.72,4.58,2.89,6.03.38,3.38.57,25.38.62,28.78.18,12.66.52,17.26.58,18.05Z"/></svg>